<?xml version="1.0" encoding="UTF-8" standalone="no"?>
<svg
   xmlns:dc="http://purl.org/dc/elements/1.1/"
   xmlns:cc="http://creativecommons.org/ns#"
   xmlns:rdf="http://www.w3.org/1999/02/22-rdf-syntax-ns#"
   xmlns:svg="http://www.w3.org/2000/svg"
   xmlns="http://www.w3.org/2000/svg"
   xmlns:sodipodi="http://sodipodi.sourceforge.net/DTD/sodipodi-0.dtd"
   xmlns:inkscape="http://www.inkscape.org/namespaces/inkscape"
   width="51.213203mm"
   height="46.819805mm"
   viewBox="0 0 51.213203 46.819805"
   version="1.1"
   id="svg8"
   inkscape:version="1.0 (4035a4fb49, 2020-05-01)"
   sodipodi:docname="love.svg">
  <defs
     id="defs2" />
  <sodipodi:namedview
     id="base"
     pagecolor="#ffffff"
     bordercolor="#666666"
     borderopacity="1.0"
     inkscape:pageopacity="0.0"
     inkscape:pageshadow="2"
     inkscape:zoom="0.81029063"
     inkscape:cx="149.70285"
     inkscape:cy="172.07409"
     inkscape:document-units="mm"
     inkscape:current-layer="layer1"
     inkscape:document-rotation="0"
     showgrid="false"
     inkscape:snap-bbox="true"
     inkscape:bbox-paths="false"
     inkscape:snap-bbox-midpoints="true"
     fit-margin-top="0"
     fit-margin-left="0"
     fit-margin-right="0"
     fit-margin-bottom="0"
     inkscape:window-width="1366"
     inkscape:window-height="723"
     inkscape:window-x="0"
     inkscape:window-y="0"
     inkscape:window-maximized="1" />
  <metadata
     id="metadata5">
    <rdf:RDF>
      <cc:Work
         rdf:about="">
        <dc:format>image/svg+xml</dc:format>
        <dc:type
           rdf:resource="http://purl.org/dc/dcmitype/StillImage" />
        <dc:title />
      </cc:Work>
    </rdf:RDF>
  </metadata>
  <g
     inkscape:label="Layer 1"
     inkscape:groupmode="layer"
     id="layer1"
     transform="translate(-1.2324443,-1.0442272)">
    <path
       id="path851-3"
       style="fill:#ffffff;stroke:#000000;stroke-width:0;stroke-opacity:0.963731"
       d="m 5.6258425,26.650829 a 15,15 0 0 1 0,-21.2132032 15,15 0 0 1 21.2132035,0 15,15 0 0 1 0,21.2132032 15,15 0 0 1 -21.2132035,0 m 21.2132015,0 a 15,15 0 0 1 0,-21.2132032 15,15 0 0 1 21.213204,0 15,15 0 0 1 0,21.2132032 15,15 0 0 1 -21.213204,0 z m 21.213204,10e-7 L 26.839045,47.864033 5.6258425,26.65083 26.839045,5.4376258 Z" />
  </g>
</svg>
