<?xml version="1.0" encoding="UTF-8" standalone="no"?>
<svg
   xmlns:dc="http://purl.org/dc/elements/1.1/"
   xmlns:cc="http://creativecommons.org/ns#"
   xmlns:rdf="http://www.w3.org/1999/02/22-rdf-syntax-ns#"
   xmlns:svg="http://www.w3.org/2000/svg"
   xmlns="http://www.w3.org/2000/svg"
   xmlns:sodipodi="http://sodipodi.sourceforge.net/DTD/sodipodi-0.dtd"
   xmlns:inkscape="http://www.inkscape.org/namespaces/inkscape"
   inkscape:version="1.0 (4035a4fb49, 2020-05-01)"
   sodipodi:docname="search.svg"
   version="1.1"
   width="512"
   viewBox="0 0 511.909 511.909"
   height="512"
   enable-background="new 0 0 511.909 511.909"
   id="Capa_1">
  <metadata
     id="metadata39">
    <rdf:RDF>
      <cc:Work
         rdf:about="">
        <dc:format>image/svg+xml</dc:format>
        <dc:type
           rdf:resource="http://purl.org/dc/dcmitype/StillImage" />
      </cc:Work>
    </rdf:RDF>
  </metadata>
  <defs
     id="defs37" />
  <sodipodi:namedview
     inkscape:current-layer="Capa_1"
     inkscape:window-maximized="0"
     inkscape:window-y="0"
     inkscape:window-x="0"
     inkscape:cy="410.74462"
     inkscape:cx="-256.98257"
     inkscape:zoom="0.24260702"
     showgrid="false"
     id="namedview35"
     inkscape:window-height="480"
     inkscape:window-width="714"
     inkscape:pageshadow="2"
     inkscape:pageopacity="0"
     guidetolerance="10"
     gridtolerance="10"
     objecttolerance="10"
     borderopacity="1"
     bordercolor="#666666"
     pagecolor="#ffffff" />
  <g
     transform="matrix(-0.68202361,0,0,0.68202361,432.56736,87.518067)"
     id="g32">
    <g
       id="g18">
      <g
         id="g8">
        <circle
           id="circle2"
           r="186.045"
           fill="#d1aee5"
           cy="195.953"
           cx="315.95499" />
        <g
           id="g6">
          <circle
             r="138.97701"
             id="ellipse4"
             transform="matrix(0.707,-0.707,0.707,0.707,-46.019,280.808)"
             fill="#faf7f5"
             cy="195.953"
             cx="315.95499" />
        </g>
      </g>
      <g
         id="g14">
        <path
           id="path10"
           transform="matrix(0.707,-0.707,0.707,0.707,-231.359,204.037)"
           fill="#fff7bf"
           d="m 102.973,351.114 h 55.284 v 60.359 h -55.284 z" />
        <path
           id="path12"
           transform="matrix(0.707,-0.707,0.707,0.707,-290.769,179.429)"
           fill="#fff2a0"
           d="m 14.828,410.524 h 112.753 v 60.359 H 14.828 Z" />
      </g>
      <circle
         id="circle16"
         r="48.946999"
         fill="#ff7d97"
         cy="182.57201"
         cx="293.608" />
    </g>
    <g
       id="g30">
      <path
         id="path20"
         d="m 454.58,57.328 c -76.438,-76.438 -200.813,-76.438 -277.25,0 -74.066,74.067 -76.364,193.141 -6.893,270 l -20.276,20.276 -28.89,-28.89 c -3.906,-3.904 -10.236,-3.904 -14.143,0 -3.905,3.905 -3.905,10.237 0,14.143 l 7.55,7.55 L 2.929,452.156 c -3.905,3.905 -3.905,10.237 0,14.143 L 45.61,508.98 c 1.953,1.952 4.512,2.929 7.071,2.929 2.559,0 5.118,-0.977 7.071,-2.929 l 111.749,-111.749 7.55,7.55 c 1.953,1.952 4.512,2.929 7.071,2.929 2.559,0 5.118,-0.977 7.071,-2.929 3.905,-3.905 3.905,-10.237 0,-14.143 l -28.89,-28.89 20.276,-20.276 c 37.199,33.623 84.287,50.435 131.376,50.435 50.203,0 100.406,-19.109 138.625,-57.328 76.438,-76.439 76.438,-200.812 0,-277.251 z M 52.681,487.766 24.143,459.228 89.729,393.642 118.267,422.18 Z m 79.728,-79.729 -28.538,-28.538 24.949,-24.949 28.538,28.538 z m 308.029,-87.601 c -68.639,68.641 -180.326,68.641 -248.965,0 -68.641,-68.64 -68.641,-180.325 0,-248.965 34.319,-34.32 79.401,-51.48 124.482,-51.48 45.081,0 90.163,17.16 124.482,51.48 68.641,68.639 68.641,180.325 10e-4,248.965 z" />
      <path
         id="path22"
         d="m 423.46,290.399 c -1.626,-3.906 -5.657,-6.438 -9.887,-6.144 -4.105,0.286 -7.711,3.118 -8.913,7.063 -1.196,3.924 0.195,8.301 3.445,10.811 3.333,2.574 7.992,2.758 11.536,0.497 4.02,-2.564 5.652,-7.832 3.819,-12.227 z" />
      <path
         id="path24"
         d="M 421.298,90.61 C 393.202,62.514 355.79,47.042 315.955,47.042 c -39.836,0 -77.247,15.474 -105.343,43.569 -58.086,58.087 -58.087,152.6 -0.001,210.686 28.569,28.568 66.72,43.609 105.417,43.609 22.12,0 44.42,-4.916 65.208,-15.028 4.967,-2.416 7.034,-8.4 4.618,-13.366 -2.416,-4.969 -8.403,-7.033 -13.366,-4.618 -49.492,24.074 -108.861,14.133 -147.734,-24.739 -50.288,-50.287 -50.287,-132.112 0.001,-182.4 24.318,-24.319 56.707,-37.712 91.2,-37.712 34.493,0 66.882,13.393 91.2,37.711 38.946,38.945 48.848,98.397 24.64,147.938 -2.425,4.962 -0.368,10.95 4.594,13.375 4.962,2.425 10.95,0.368 13.375,-4.594 27.958,-57.215 16.518,-125.879 -28.466,-170.863 z" />
      <path
         id="path26"
         d="m 293.609,260.492 c 5.522,0 10,-4.478 10,-10 v -9.821 c 8.816,-1.513 16.97,-4.99 23.992,-9.964 l 6.963,6.963 c 1.953,1.952 4.512,2.929 7.071,2.929 2.56,0 5.118,-0.976 7.071,-2.929 3.905,-3.905 3.905,-10.237 0,-14.143 l -6.963,-6.963 c 4.974,-7.022 8.451,-15.176 9.964,-23.992 h 9.821 c 5.523,0 10,-4.478 10,-10 0,-5.523 -4.477,-10 -10,-10 h -9.821 c -1.513,-8.816 -4.99,-16.97 -9.964,-23.993 l 6.963,-6.963 c 3.905,-3.905 3.905,-10.237 0,-14.143 -3.906,-3.904 -10.236,-3.904 -14.143,0 l -6.963,6.963 c -7.022,-4.974 -15.176,-8.451 -23.992,-9.964 v -9.82 c 0,-5.522 -4.478,-10 -10,-10 -5.522,0 -10,4.478 -10,10 v 9.82 c -8.816,1.513 -16.97,4.99 -23.993,9.964 l -6.964,-6.963 c -3.906,-3.904 -10.236,-3.904 -14.143,0 -3.905,3.905 -3.905,10.237 0,14.143 l 6.964,6.964 c -4.974,7.023 -8.452,15.176 -9.964,23.993 h -9.82 c -5.523,0 -10,4.477 -10,10 0,5.522 4.477,10 10,10 h 9.82 c 1.513,8.816 4.99,16.969 9.964,23.992 l -6.963,6.963 c -3.905,3.905 -3.905,10.237 0,14.143 1.953,1.952 4.512,2.929 7.071,2.929 2.559,0 5.118,-0.976 7.071,-2.929 l 6.963,-6.963 c 7.023,4.974 15.176,8.452 23.993,9.964 v 9.821 c 0.002,5.522 4.479,9.999 10.002,9.999 z m -38.949,-77.92 c 0,-21.477 17.472,-38.948 38.948,-38.948 21.476,0 38.947,17.472 38.947,38.948 0,21.475 -17.472,38.947 -38.947,38.947 -21.476,0.001 -38.948,-17.471 -38.948,-38.947 z" />
      <path
         id="path28"
         d="m 353.108,280.938 c 35.501,0 64.383,-28.882 64.383,-64.383 0,-5.522 -4.478,-10 -10,-10 -5.522,0 -10,4.478 -10,10 0,24.473 -19.91,44.383 -44.383,44.383 -5.522,0 -10,4.478 -10,10 0,5.522 4.477,10 10,10 z" />
    </g>
  </g>
</svg>
